<svg width="20" height="16" viewBox="0 0 20 16" fill="none" xmlns="http://www.w3.org/2000/svg">
<path d="M18.75 6.75H1.25C0.559648 6.75 0 7.30965 0 8C0 8.69035 0.559648 9.25 1.25 9.25H18.75C19.4404 9.25 20 8.69035 20 8C20 7.30965 19.4404 6.75 18.75 6.75Z" fill="black"/>
<path d="M1.25 3.41675H18.75C19.4404 3.41675 20 2.8571 20 2.16675C20 1.4764 19.4404 0.916748 18.75 0.916748H1.25C0.559648 0.916748 0 1.4764 0 2.16675C0 2.8571 0.559648 3.41675 1.25 3.41675Z" fill="black"/>
<path d="M18.75 12.5835H1.25C0.559648 12.5835 0 13.1431 0 13.8335C0 14.5238 0.559648 15.0835 1.25 15.0835H18.75C19.4404 15.0835 20 14.5238 20 13.8335C20 13.1431 19.4404 12.5835 18.75 12.5835Z" fill="black"/>
</svg>
