<svg width="19" height="19" viewBox="0 0 19 19" fill="none" xmlns="http://www.w3.org/2000/svg">
<path d="M18.94 5.51779C18.9296 4.73285 18.7826 3.9557 18.5058 3.22113C18.2657 2.60152 17.899 2.0388 17.4291 1.56893C16.9592 1.09906 16.3965 0.732373 15.7769 0.49229C15.0518 0.220087 14.2857 0.0729017 13.5114 0.057002C12.5143 0.0124369 12.1982 0 9.66735 0C7.13646 0 6.81206 6.57555e-08 5.8223 0.057002C5.04828 0.0730186 4.28257 0.220202 3.55777 0.49229C2.93806 0.732205 2.37526 1.09884 1.90537 1.56873C1.43548 2.03862 1.06884 2.60142 0.828929 3.22113C0.556181 3.94571 0.409315 4.71159 0.394678 5.48566C0.350113 6.48372 0.336639 6.79982 0.336639 9.33071C0.336639 11.8616 0.336639 12.185 0.394678 13.1757C0.410224 13.951 0.556356 14.7158 0.828929 15.4424C1.06925 16.0619 1.43615 16.6244 1.9062 17.0941C2.37625 17.5638 2.93911 17.9303 3.55881 18.1702C4.28163 18.4533 5.04746 18.611 5.82334 18.6365C6.82139 18.6811 7.13749 18.6946 9.66838 18.6946C12.1993 18.6946 12.5237 18.6946 13.5134 18.6365C14.2878 18.6213 15.0539 18.4744 15.779 18.2023C16.3984 17.9619 16.961 17.5951 17.4309 17.1253C17.9007 16.6555 18.2675 16.0929 18.5078 15.4734C18.7804 14.748 18.9265 13.9831 18.9421 13.2068C18.9867 12.2098 19.0001 11.8937 19.0001 9.3618C18.998 6.83091 18.9981 6.50963 18.94 5.51779ZM9.66113 14.1168C7.01416 14.1168 4.86985 11.9725 4.86985 9.32552C4.86985 6.67856 7.01416 4.53425 9.66113 4.53425C10.9319 4.53425 12.1505 5.03904 13.0491 5.93758C13.9476 6.83612 14.4524 8.0548 14.4524 9.32552C14.4524 10.5962 13.9476 11.8149 13.0491 12.7135C12.1505 13.612 10.9319 14.1168 9.66113 14.1168ZM14.6431 5.47426C14.4963 5.4744 14.351 5.44559 14.2154 5.3895C14.0798 5.3334 13.9566 5.25111 13.8528 5.14734C13.749 5.04356 13.6667 4.92035 13.6106 4.78473C13.5545 4.64912 13.5257 4.50378 13.5259 4.35702C13.5259 4.21037 13.5547 4.06516 13.6109 3.92967C13.667 3.79419 13.7492 3.67108 13.8529 3.56738C13.9566 3.46369 14.0797 3.38143 14.2152 3.32531C14.3507 3.26919 14.4959 3.2403 14.6426 3.2403C14.7892 3.2403 14.9344 3.26919 15.0699 3.32531C15.2054 3.38143 15.3285 3.46369 15.4322 3.56738C15.5359 3.67108 15.6182 3.79419 15.6743 3.92967C15.7304 4.06516 15.7593 4.21037 15.7593 4.35702C15.7593 4.97472 15.2598 5.47426 14.6431 5.47426Z" fill="white"/>
</svg>
